<?xml version="1.0" encoding="UTF-8"?>
<svg id="Layer_1" xmlns="http://www.w3.org/2000/svg" version="1.1" viewBox="0 0 1082 976">
  <!-- Generator: Adobe Illustrator 30.2.1, SVG Export Plug-In . SVG Version: 2.1.1 Build 1)  -->
  <defs>
    <style>
      .st0 {
        fill: url(#grad1);
      }
    </style>
    <linearGradient id="grad1" gradientUnits="userSpaceOnUse" x1="0" y1="0" x2="0" y2="976">
      <stop offset="0%" style="stop-color:#06B6D4;stop-opacity:1" />
      <stop offset="33%" style="stop-color:#8B5CF6;stop-opacity:1" />
      <stop offset="66%" style="stop-color:#EC4899;stop-opacity:1" />
      <stop offset="100%" style="stop-color:#F59E0B;stop-opacity:1" />
    </linearGradient>
  </defs>
  <path class="st0" d="M548.61,284.39c-6.59-1.73-17.62,1-24.14,4.21-8.52,4.2-13.49,11.5-18.05,19.81l-94.87,172.79-10.13,19.63-42.8,18.97-55.01,23.86-23.11,10.02-32.02,14.01-49.57,21.37-42.92,17.27c-5.08,2.05-10.01,2.76-15.21,1.98l21.81-39.55,12.22-22.08,82.34-149.29,5.81-10.55,71.17-129.39,4.07-7.24,52.72-95.95,7.39-13.8,16.76-30.28c10.02-18.1,23.65-32.91,40.41-44.71l5.94-4.19c12.37-8.71,33.49-17.24,48.85-20.34,5.7-1.15,12.01-2.85,17.73-2.9l22-.21c6.55-.06,12.55.65,19.02,1.89,27.41,5.29,49.44,15.5,70.65,33.42,4.71,3.98,9.21,8.33,13.14,13.05l5.46,6.56c3.91,4.7,7.46,10.09,10.45,15.45l10.15,18.15,41.06,74.68,13.93,25.35,63.83,116.11,60.53,110.92-2.31,1.23c-26.36-22.2-65.28-41.17-98.13-48.17l-9.08-1.93c-17.83-3.8-51.91-5.71-69.59-3.99l-20.96,2.04c-7.79.76-17.92,3.66-25.63,3.96l-50.51-91.66c-8.73-15.85-12.15-24.94-33.42-30.51Z"/>
  <path class="st0" d="M617.88,585.33l-197.12,84.64-146.75,63.18-107.6,46.36-38.03,16.12-21.05,8.07c-20.86,8-45.21,16.22-67.43,16.9-3.32.1-12.3-.09-13.74-3.56-.6-1.46.03-4.67,1.13-6.64l68.9-123.92,34.19-61.36c26.76-7.34,52.13-17.12,77.75-28.25l227.81-98.95,21.13-9.23,128.67-56.04c20.29-8.84,49.42-15.63,71.18-18.98,53.02-8.16,107.91-.87,155.36,24.92,27.28,14.83,58.23,38.38,73.17,66.18l32.54,60.56,19.41,36.45,32.61,61.41c3.28,6.18,6.21,11.17,9.11,18.05-4.84-1.8-8.23-3.56-12.39-5.86l-20.56-11.4-48.82-26.23-68.92-36.05c-28.03-14.66-68.14-28.9-99.39-31.31-19.39-1.5-38.23-2.31-57.31.66-18.65,2.9-36.43,6.78-53.86,14.26Z"/>
  <path class="st0" d="M863.87,927.49c-10.03,2.5-19.28-2.07-23.83-10.81l-24.39-46.78-86.43-168.98c-8.65-16.92-19.05-31.26-33.24-43.89-30.02-26.72-70.31-48.38-112.32-45.39l33.52-14.68c49.97-21.89,105.25-22.14,157.25-6.45,20.17,7.08,39.14,14.68,58.1,24.91l157.31,84.91,55.06,103.86c4.53,8.54,3.15,16.57-2.6,24.26-6.59,6.73-13.59,12.77-21.84,18.31-39.32,26.44-80.29,49.51-123.47,69.14-10.92,4.96-21.35,8.66-33.11,11.59Z"/>
  <path class="st0" d="M224.21,926.22l-93.8-48.44-84.82-46.15c13.46-2.43,25.62-5.05,38.44-8.79,21.58-7.14,42.18-14.98,63.36-23.91l278.44-119.65-125.3,221.81-16.09,24.21c-9.43,10.71-22.78,15.6-36.51,10.82-8.06-2.81-15.58-5.69-23.74-9.9Z"/>
</svg>