<?xml version="1.0" encoding="UTF-8"?>
<svg id="Layer_1" xmlns="http://www.w3.org/2000/svg" version="1.1" viewBox="0 0 574 575">
  <!-- Generator: Adobe Illustrator 30.2.1, SVG Export Plug-In . SVG Version: 2.1.1 Build 1)  -->
  <defs>
    <linearGradient id="greenBlueGrad" x1="50%" y1="0%" x2="50%" y2="100%">
      <stop offset="0%" style="stop-color:#e8eef5"/>
      <stop offset="35%" style="stop-color:#a0b8d0"/>
      <stop offset="70%" style="stop-color:#4a7090"/>
      <stop offset="100%" style="stop-color:#0f2a45"/>
    </linearGradient>
    <style>
      .st0 {
        fill: url(#greenBlueGrad);
      }
    </style>
  </defs>
  <path class="st0" fill-rule="evenodd" d="M377.04,411.68l-179.81-.08-31.65,89.91c-9.58,27.22-38.6,34.11-64.58,33.96-13.3-.07-26.29-1.37-37.93-7.53-19.23-10.19-14.47-31.34-8.14-48.22L203.41,83.55c4.91-13.11,15.27-23.09,26.42-30.5,33.74-22.41,85.12-21.65,118.42,2.4,12.63,9.13,20,20.93,25.38,35.33l146.87,392.64c3.66,9.79,5.9,19.27,3.38,29.31-7.02,27.97-66.36,25.74-87.37,16.89-11-5.14-22.35-12.62-26.62-24.73l-32.85-93.2ZM345.25,318.05l-58.16-167.19-58.37,167.47,116.53-.28Z"/>
</svg>