<?xml version="1.0" encoding="UTF-8"?>
<svg id="Layer_1" xmlns="http://www.w3.org/2000/svg" version="1.1" viewBox="0 0 1024 1024">
  <!-- Generator: Adobe Illustrator 30.2.1, SVG Export Plug-In . SVG Version: 2.1.1 Build 1)  -->
  <defs>
    <linearGradient id="greenBlueGrad" x1="0%" y1="0%" x2="100%" y2="100%">
      <stop offset="0%" style="stop-color:#2da5e8"/>
      <stop offset="50%" style="stop-color:#3fc4cc"/>
      <stop offset="100%" style="stop-color:#5de0b0"/>
    </linearGradient>
    <style>
      .st0 {
        fill: url(#greenBlueGrad);
      }
    </style>
  </defs>

  <path class="st0" d="M565.59,998.2c-91.51,10.07-183.13-6.49-265-46.63-51.13-25.17-98.08-58.53-137.79-99.32-60.62-62.27-104.12-139.07-125.75-223.28-15.67-61.02-18.31-124.27-9.68-186.55,8.46-61.02,28.09-119.16,58.35-172.84,42.87-76.03,105.28-139.94,180.62-184.17C373.06,22.77,500.89,5.12,621.15,31.88c77.98,17.36,149.63,53.88,209.71,106.27,53.69,46.81,96.77,104.54,126.31,169.53,49.08,107.99,58.29,235.87,21.8,349.27-59.56,185.12-219.25,317.58-413.38,341.25ZM768,438.98c-44.42,33.04-75.15,68.47-111.88,108.95l-57.18,63.01c-31.54,34.76-83.32,75.92-126.29,95.59-28.38,13.24-56.8,23.54-87.46,29.79l-82.26,16.77c19.69,58.06,49.98,111.36,93.75,154.15,26.34,25.36,59.33,48.48,97.85,51.71v-235.06c14.15-12.85,31.66-19.18,50.51-22.12,61.27-6.31,128.27,4.91,188.59,17.45,17.99-62.5,27.3-125.32,27.95-189.97l-50.1-.21,33.72-34.16,220.56-.06c-5.41-146.87-81.88-281.8-202.87-363.61-67.68-45.7-151.63-73.36-234.12-72.84v236.54c0,11.58-7.79,20.48-18.81,23.07-7.11,1.67-14.42,1.84-21.99,2.33-66.71,1.19-130.17-7.41-195.86-19.71-19.36,63.34-29.32,127.35-29.53,192.98l107.78.5c-7.76,10.9-17.22,16.58-27.98,21.57-28.47,11.68-54.78,11.77-85.41,12.63l-94.75-.77-104.33-.6c3.05,86.74,31.02,168.85,80.7,240.1,36.99-19.17,71.29-29.05,112.03-38.55l68.43-14.47c25.96-5.49,50.61-11.79,75.87-19.92,36.24-11.66,68.3-30.2,96.87-55.35,24.09-21.2,45.77-43.85,66.17-68.69l54.51-66.39c18.05-21.99,36.31-42.66,56.92-62.22,20.55-19.5,42.92-35.78,68.7-47.51,32.7-14.87,67.88-21.02,103.45-16.39,17.63,2.29,34.7,6.64,50.08,16.05-48.12,1.63-86.44,17.79-123.59,45.41ZM303.83,266.89c63.93,13.46,126.07,19.33,190.58,18.4V62.55c-16.42,1.04-31.11,6.35-45.42,13.33-17.86,9.09-33.21,20.55-47.93,34.24-22.65,21.52-41.36,45.53-57.62,72.33-15.87,27.02-29.21,54.69-39.62,84.44ZM269.06,259.57c12.25-34.75,26.27-65.88,44.62-95.87,20.52-34.3,45.98-63.15,76.88-89.81-92.77,22.62-173.58,79.46-232.16,152.61,35.59,16.21,73.18,24.98,110.65,33.07ZM227.73,493.83c1.04-67.96,10.34-134.93,30.2-200.47-41.48-10.45-82.81-20.4-121.35-38.11-47.5,70.29-75.14,152.24-78.56,237.33l63.03.42,106.68.83ZM881.63,772.94c30.32-42.4,52.76-88.37,67.38-137.85,9.91-34.77,15.95-69.64,16.79-105.93l-169.58.03c-.84,67.7-10.88,133.74-29.57,198.33,24.51,7.05,47.29,14.62,70.07,23.83l44.91,21.59ZM656.62,875.01c28.73-37.49,49.94-78.5,65.58-122.82-49.32-10.98-98.15-17.82-148.06-18.34l-45.36-.47v225.61c22.56-1.75,42.59-10.03,61.38-21.89,25.84-16.53,47.28-37.46,66.47-62.09ZM391.24,948.32c-61.17-52.93-96.14-113.08-122.46-188.44-35.99,7.95-76.06,18.35-108.45,35.76,59.62,74.07,139.58,126.81,230.91,152.68ZM860.11,800.63c-33.11-18.08-67.58-29.88-104.32-40.19-25.94,73.21-64.49,138.56-123.59,188.31,88.2-23.68,170.37-78.08,227.9-148.12Z"/>
  <path class="st0" d="M244.19,645.83c-38.21-6.79-82.82-26.3-110.58-54.63,17.8,5.4,33.46,10.22,51,13.25,64.48,11.11,122.96-4.61,177.57-39.23,52.38-33.21,93.64-77.41,133.08-124.92l42.65-51.37c30.35-36.56,66.15-70.23,108.14-93.03,67.53-36.66,149.03-42.03,216.44-2.49,4.38,2.57,8.35,4.84,11.56,9.14-58.93-14.98-119.32-6.18-171.11,24.71-22.57,13.46-42.31,30.05-60.83,48.89-18.79,19.11-35.53,38.88-52.04,60.01l-50.44,64.54c-18.5,23.68-37.85,45.61-59.82,66.14-64.11,59.92-147.06,94.75-235.63,79Z"/>
</svg>